<?xml version="1.0" encoding="UTF-8"?>
<svg width="100pt" height="100pt" version="1.1" viewBox="0 0 100 100" xmlns="http://www.w3.org/2000/svg">
 <g>
  <path d="m37.109 37.109h25.781v25.781h-25.781z"/>
  <path d="m65.625 29.297h-31.25c-2.8125 0-5.0781 2.2656-5.0781 5.0781v31.25c0 2.8125 2.2656 5.0781 5.0781 5.0781h31.25c2.8125 0 5.0781-2.2656 5.0781-5.0781v-31.25c0-2.8125-2.2656-5.0781-5.0781-5.0781zm-0.39062 34.766c0 0.64453-0.52734 1.1719-1.1719 1.1719h-28.125c-0.64453 0-1.1719-0.52734-1.1719-1.1719v-28.125c0-0.64453 0.52734-1.1719 1.1719-1.1719h28.125c0.64453 0 1.1719 0.52734 1.1719 1.1719z"/>
  <path d="m34.766 26.172c-0.019531 0.625 0.46875 1.1523 1.0938 1.1719h0.039063 5.8594c0.66406 0 1.1914-0.50781 1.2109-1.1719v-9.7656c-0.019531-0.66406-0.56641-1.1719-1.2109-1.1719h-0.15625v-4.6875c-0.019531-0.66406-0.56641-1.1719-1.2109-1.1719h-0.35156v-3.125c0-0.64453-0.52734-1.1719-1.1719-1.1719-0.64453 0-1.1719 0.52734-1.1719 1.1719v3.125h-0.42969c-0.625 0-1.1328 0.50781-1.1328 1.1328v0.039063 4.6875h-0.23437c-0.625 0-1.1328 0.50781-1.1328 1.1328v0.039062z"/>
  <path d="m58.242 27.344h5.8594c0.625 0 1.1328-0.50781 1.1328-1.1328v-0.039063-9.7656c0.019531-0.625-0.46875-1.1523-1.0938-1.1719h-0.039063-0.23437v-4.6875c0.019531-0.625-0.46875-1.1523-1.0938-1.1719h-0.039063-0.42969v-3.125c0-0.64453-0.52734-1.1719-1.1719-1.1719-0.64453 0-1.1719 0.52734-1.1719 1.1719v3.125h-0.35156c-0.66406 0-1.1914 0.50781-1.2109 1.1719v4.6875h-0.15625c-0.66406 0-1.1914 0.50781-1.2109 1.1719v9.7656c0.019531 0.66406 0.56641 1.1719 1.2109 1.1719z"/>
  <path d="m47.07 27.344h5.8594c0.64453 0 1.1719-0.52734 1.1719-1.1719v-9.7656c0-0.64453-0.52734-1.1719-1.1719-1.1719h-0.19531v-4.6875c0-0.64453-0.52734-1.1719-1.1719-1.1719h-0.39062v-3.125c0-0.64453-0.52734-1.1719-1.1719-1.1719s-1.1719 0.52734-1.1719 1.1719v3.125h-0.39062c-0.64453 0-1.1719 0.52734-1.1719 1.1719v4.6875h-0.19531c-0.64453 0-1.1719 0.52734-1.1719 1.1719v9.7656c0 0.64453 0.52734 1.1719 1.1719 1.1719z"/>
  <path d="m65.234 73.828c0.019531-0.625-0.46875-1.1523-1.0938-1.1719h-0.039063-5.8594c-0.66406 0-1.1914 0.50781-1.2109 1.1719v9.7656c0.019531 0.66406 0.56641 1.1719 1.2109 1.1719h0.15625v4.6875c0.019531 0.66406 0.56641 1.1719 1.2109 1.1719h0.35156v3.125c0 0.64453 0.52734 1.1719 1.1719 1.1719 0.64453 0 1.1719-0.52734 1.1719-1.1719v-3.125h0.42969c0.625 0 1.1328-0.50781 1.1328-1.1328v-0.039063-4.6875h0.23437c0.625 0 1.1328-0.50781 1.1328-1.1328v-0.039062z"/>
  <path d="m41.758 72.656h-5.8594c-0.625 0-1.1328 0.50781-1.1328 1.1328v0.039063 9.7656c-0.019531 0.625 0.46875 1.1523 1.0938 1.1719h0.039063 0.23437v4.6875c-0.019531 0.625 0.46875 1.1523 1.0938 1.1719h0.039063 0.42969v3.125c0 0.64453 0.52734 1.1719 1.1719 1.1719 0.64453 0 1.1719-0.52734 1.1719-1.1719v-3.125h0.35156c0.66406 0 1.1914-0.50781 1.2109-1.1719v-4.6875h0.15625c0.66406 0 1.1914-0.50781 1.2109-1.1719v-9.7656c-0.019531-0.66406-0.56641-1.1719-1.2109-1.1719z"/>
  <path d="m52.93 72.656h-5.8594c-0.64453 0-1.1719 0.52734-1.1719 1.1719v9.7656c0 0.64453 0.52734 1.1719 1.1719 1.1719h0.19531v4.6875c0 0.64453 0.52734 1.1719 1.1719 1.1719h0.39062v3.125c0 0.64453 0.52734 1.1719 1.1719 1.1719s1.1719-0.52734 1.1719-1.1719v-3.125h0.39062c0.64453 0 1.1719-0.52734 1.1719-1.1719v-4.6875h0.19531c0.64453 0 1.1719-0.52734 1.1719-1.1719v-9.7656c0-0.64453-0.52734-1.1719-1.1719-1.1719z"/>
  <path d="m73.828 42.969h9.7656c0.66406-0.019531 1.1719-0.56641 1.1719-1.2109v-0.15625h4.6875c0.66406-0.019531 1.1719-0.56641 1.1719-1.2109v-0.35156h3.125c0.64453 0 1.1719-0.52734 1.1719-1.1719 0-0.64453-0.52734-1.1719-1.1719-1.1719h-3.125v-0.42969c0-0.625-0.50781-1.1328-1.1328-1.1328h-0.039063-4.6875v-0.23437c0-0.625-0.50781-1.1328-1.1328-1.1328h-0.039062-9.7656c-0.625-0.019531-1.1523 0.46875-1.1719 1.0938v0.039063 5.8594c0 0.64453 0.50781 1.1914 1.1719 1.2109z"/>
  <path d="m93.75 59.961h-3.125v-0.35156c0-0.66406-0.50781-1.1914-1.1719-1.2109h-4.6875v-0.15625c0-0.66406-0.50781-1.1914-1.1719-1.2109h-9.7656c-0.66406 0.019531-1.1719 0.56641-1.1719 1.2109v5.8594c0 0.625 0.50781 1.1328 1.1328 1.1328h0.039063 9.7656c0.625 0.019531 1.1523-0.46875 1.1719-1.0938v-0.039063-0.23437h4.6875c0.625 0.019531 1.1523-0.46875 1.1719-1.0938v-0.039063-0.42969h3.125c0.64453 0 1.1719-0.52734 1.1719-1.1719 0-0.64453-0.52734-1.1719-1.1719-1.1719z"/>
  <path d="m93.75 48.828h-3.125v-0.39062c0-0.64453-0.52734-1.1719-1.1719-1.1719h-4.6875v-0.19531c0-0.64453-0.52734-1.1719-1.1719-1.1719h-9.7656c-0.64453 0-1.1719 0.52734-1.1719 1.1719v5.8594c0 0.64453 0.52734 1.1719 1.1719 1.1719h9.7656c0.64453 0 1.1719-0.52734 1.1719-1.1719v-0.19531h4.6875c0.64453 0 1.1719-0.52734 1.1719-1.1719v-0.39062h3.125c0.64453 0 1.1719-0.52734 1.1719-1.1719s-0.52734-1.1719-1.1719-1.1719z"/>
  <path d="m26.172 57.031h-9.7656c-0.66406 0.019531-1.1719 0.56641-1.1719 1.2109v0.15625h-4.6875c-0.66406 0.019531-1.1719 0.56641-1.1719 1.2109v0.35156h-3.125c-0.64453 0-1.1719 0.52734-1.1719 1.1719 0 0.64453 0.52734 1.1719 1.1719 1.1719h3.125v0.42969c0 0.625 0.50781 1.1328 1.1328 1.1328h0.039063 4.6875v0.23437c0 0.625 0.50781 1.1328 1.1328 1.1328h0.039062 9.7656c0.625 0.019531 1.1523-0.46875 1.1719-1.0938v-0.039063-5.8594c0-0.64453-0.50781-1.1914-1.1719-1.2109z"/>
  <path d="m26.211 34.766h-0.039063-9.7656c-0.625-0.019531-1.1523 0.46875-1.1719 1.0938v0.039063 0.23437h-4.6875c-0.625-0.019531-1.1523 0.46875-1.1719 1.0938v0.039063 0.42969h-3.125c-0.64453 0-1.1719 0.52734-1.1719 1.1719 0 0.64453 0.52734 1.1719 1.1719 1.1719h3.125v0.35156c0 0.66406 0.50781 1.1914 1.1719 1.2109h4.6875v0.15625c0 0.66406 0.50781 1.1914 1.1719 1.2109h9.7656c0.66406-0.019531 1.1719-0.56641 1.1719-1.2109v-5.8594c0-0.625-0.50781-1.1328-1.1328-1.1328z"/>
  <path d="m26.172 45.898h-9.7656c-0.64453 0-1.1719 0.52734-1.1719 1.1719v0.19531h-4.6875c-0.64453 0-1.1719 0.52734-1.1719 1.1719v0.39062h-3.125c-0.64453 0-1.1719 0.52734-1.1719 1.1719s0.52734 1.1719 1.1719 1.1719h3.125v0.39062c0 0.64453 0.52734 1.1719 1.1719 1.1719h4.6875v0.19531c0 0.64453 0.52734 1.1719 1.1719 1.1719h9.7656c0.64453 0 1.1719-0.52734 1.1719-1.1719v-5.8594c0-0.64453-0.52734-1.1719-1.1719-1.1719z"/>
 </g>
</svg>
