<?xml version="1.0" encoding="UTF-8"?>
<svg width="1200pt" height="1200pt" version="1.1" viewBox="0 0 1200 1200" xmlns="http://www.w3.org/2000/svg">
 <g>
  <path d="m445.31 445.31h309.38v309.38h-309.38z"/>
  <path d="m787.5 351.56h-375c-33.75 0-60.938 27.188-60.938 60.938v375c0 33.75 27.188 60.938 60.938 60.938h375c33.75 0 60.938-27.188 60.938-60.938v-375c0-33.75-27.188-60.938-60.938-60.938zm-4.6875 417.19c0 7.7344-6.3281 14.062-14.062 14.062h-337.5c-7.7344 0-14.062-6.3281-14.062-14.062v-337.5c0-7.7344 6.3281-14.062 14.062-14.062h337.5c7.7344 0 14.062 6.3281 14.062 14.062z"/>
  <path d="m417.19 314.06c-0.23438 7.5 5.625 13.828 13.125 14.062h0.46875 70.312c7.9688 0 14.297-6.0938 14.531-14.062v-117.19c-0.23438-7.9688-6.7969-14.062-14.531-14.062h-1.875v-56.25c-0.23438-7.9688-6.7969-14.062-14.531-14.062h-4.2188v-37.5c0-7.7344-6.3281-14.062-14.062-14.062s-14.062 6.3281-14.062 14.062v37.5h-5.1562c-7.5 0-13.594 6.0938-13.594 13.594v0.46875 56.25h-2.8125c-7.5 0-13.594 6.0938-13.594 13.594v0.46875z"/>
  <path d="m698.91 328.12h70.312c7.5 0 13.594-6.0938 13.594-13.594v-0.46875-117.19c0.23438-7.5-5.625-13.828-13.125-14.062h-0.46875-2.8125v-56.25c0.23438-7.5-5.625-13.828-13.125-14.062h-0.46875-5.1562v-37.5c0-7.7344-6.3281-14.062-14.062-14.062s-14.062 6.3281-14.062 14.062v37.5h-4.2188c-7.9688 0-14.297 6.0938-14.531 14.062v56.25h-1.875c-7.9688 0-14.297 6.0938-14.531 14.062v117.19c0.23438 7.9688 6.7969 14.062 14.531 14.062z"/>
  <path d="m564.84 328.12h70.312c7.7344 0 14.062-6.3281 14.062-14.062v-117.19c0-7.7344-6.3281-14.062-14.062-14.062h-2.3438v-56.25c0-7.7344-6.3281-14.062-14.062-14.062h-4.6875v-37.5c0-7.7344-6.3281-14.062-14.062-14.062s-14.062 6.3281-14.062 14.062v37.5h-4.6875c-7.7344 0-14.062 6.3281-14.062 14.062v56.25h-2.3438c-7.7344 0-14.062 6.3281-14.062 14.062v117.19c0 7.7344 6.3281 14.062 14.062 14.062z"/>
  <path d="m782.81 885.94c0.23438-7.5-5.625-13.828-13.125-14.062h-0.46875-70.312c-7.9688 0-14.297 6.0938-14.531 14.062v117.19c0.23438 7.9688 6.7969 14.062 14.531 14.062h1.875v56.25c0.23438 7.9688 6.7969 14.062 14.531 14.062h4.2188v37.5c0 7.7344 6.3281 14.062 14.062 14.062s14.062-6.3281 14.062-14.062v-37.5h5.1562c7.5 0 13.594-6.0938 13.594-13.594v-0.46875-56.25h2.8125c7.5 0 13.594-6.0938 13.594-13.594v-0.46875z"/>
  <path d="m501.09 871.88h-70.312c-7.5 0-13.594 6.0938-13.594 13.594v0.46875 117.19c-0.23438 7.5 5.625 13.828 13.125 14.062h0.46875 2.8125v56.25c-0.23438 7.5 5.625 13.828 13.125 14.062h0.46875 5.1562v37.5c0 7.7344 6.3281 14.062 14.062 14.062s14.062-6.3281 14.062-14.062v-37.5h4.2188c7.9688 0 14.297-6.0938 14.531-14.062v-56.25h1.875c7.9688 0 14.297-6.0938 14.531-14.062v-117.19c-0.23438-7.9688-6.7969-14.062-14.531-14.062z"/>
  <path d="m635.16 871.88h-70.312c-7.7344 0-14.062 6.3281-14.062 14.062v117.19c0 7.7344 6.3281 14.062 14.062 14.062h2.3438v56.25c0 7.7344 6.3281 14.062 14.062 14.062h4.6875v37.5c0 7.7344 6.3281 14.062 14.062 14.062s14.062-6.3281 14.062-14.062v-37.5h4.6875c7.7344 0 14.062-6.3281 14.062-14.062v-56.25h2.3438c7.7344 0 14.062-6.3281 14.062-14.062v-117.19c0-7.7344-6.3281-14.062-14.062-14.062z"/>
  <path d="m885.94 515.62h117.19c7.9688-0.23438 14.062-6.7969 14.062-14.531v-1.875h56.25c7.9688-0.23438 14.062-6.7969 14.062-14.531v-4.2188h37.5c7.7344 0 14.062-6.3281 14.062-14.062s-6.3281-14.062-14.062-14.062h-37.5v-5.1562c0-7.5-6.0938-13.594-13.594-13.594h-0.46875-56.25v-2.8125c0-7.5-6.0938-13.594-13.594-13.594h-0.46875-117.19c-7.5-0.23438-13.828 5.625-14.062 13.125v0.46875 70.312c0 7.7344 6.0938 14.297 14.062 14.531z"/>
  <path d="m1125 719.53h-37.5v-4.2188c0-7.9688-6.0938-14.297-14.062-14.531h-56.25v-1.875c0-7.9688-6.0938-14.297-14.062-14.531h-117.19c-7.9688 0.23438-14.062 6.7969-14.062 14.531v70.312c0 7.5 6.0938 13.594 13.594 13.594h0.46875 117.19c7.5 0.23438 13.828-5.625 14.062-13.125v-0.46875-2.8125h56.25c7.5 0.23438 13.828-5.625 14.062-13.125v-0.46875-5.1562h37.5c7.7344 0 14.062-6.3281 14.062-14.062s-6.3281-14.062-14.062-14.062z"/>
  <path d="m1125 585.94h-37.5v-4.6875c0-7.7344-6.3281-14.062-14.062-14.062h-56.25v-2.3438c0-7.7344-6.3281-14.062-14.062-14.062h-117.19c-7.7344 0-14.062 6.3281-14.062 14.062v70.312c0 7.7344 6.3281 14.062 14.062 14.062h117.19c7.7344 0 14.062-6.3281 14.062-14.062v-2.3438h56.25c7.7344 0 14.062-6.3281 14.062-14.062v-4.6875h37.5c7.7344 0 14.062-6.3281 14.062-14.062s-6.3281-14.062-14.062-14.062z"/>
  <path d="m314.06 684.38h-117.19c-7.9688 0.23438-14.062 6.7969-14.062 14.531v1.875h-56.25c-7.9688 0.23438-14.062 6.7969-14.062 14.531v4.2188h-37.5c-7.7344 0-14.062 6.3281-14.062 14.062s6.3281 14.062 14.062 14.062h37.5v5.1562c0 7.5 6.0938 13.594 13.594 13.594h0.46875 56.25v2.8125c0 7.5 6.0938 13.594 13.594 13.594h0.46875 117.19c7.5 0.23438 13.828-5.625 14.062-13.125v-0.46875-70.312c0-7.7344-6.0938-14.297-14.062-14.531z"/>
  <path d="m314.53 417.19h-0.46875-117.19c-7.5-0.23438-13.828 5.625-14.062 13.125v0.46875 2.8125h-56.25c-7.5-0.23438-13.828 5.625-14.062 13.125v0.46875 5.1562h-37.5c-7.7344 0-14.062 6.3281-14.062 14.062s6.3281 14.062 14.062 14.062h37.5v4.2188c0 7.9688 6.0938 14.297 14.062 14.531h56.25v1.875c0 7.9688 6.0938 14.297 14.062 14.531h117.19c7.9688-0.23438 14.062-6.7969 14.062-14.531v-70.312c0-7.5-6.0938-13.594-13.594-13.594z"/>
  <path d="m314.06 550.78h-117.19c-7.7344 0-14.062 6.3281-14.062 14.062v2.3438h-56.25c-7.7344 0-14.062 6.3281-14.062 14.062v4.6875h-37.5c-7.7344 0-14.062 6.3281-14.062 14.062s6.3281 14.062 14.062 14.062h37.5v4.6875c0 7.7344 6.3281 14.062 14.062 14.062h56.25v2.3438c0 7.7344 6.3281 14.062 14.062 14.062h117.19c7.7344 0 14.062-6.3281 14.062-14.062v-70.312c0-7.7344-6.3281-14.062-14.062-14.062z"/>
 </g>
</svg>
