<?xml version="1.0" encoding="UTF-8"?>
<svg width="512pt" height="512pt" version="1.1" viewBox="0 0 512 512" xmlns="http://www.w3.org/2000/svg">
 <g>
  <path d="m190 190h132v132h-132z"/>
  <path d="m336 150h-160c-14.398 0-26 11.602-26 26v160c0 14.398 11.602 26 26 26h160c14.398 0 26-11.602 26-26v-160c0-14.398-11.602-26-26-26zm-2 178c0 3.3008-2.6992 6-6 6h-144c-3.3008 0-6-2.6992-6-6v-144c0-3.3008 2.6992-6 6-6h144c3.3008 0 6 2.6992 6 6z"/>
  <path d="m178 134c-0.10156 3.1992 2.3984 5.8984 5.6016 6h0.19922 30c3.3984 0 6.1016-2.6016 6.1992-6v-50c-0.10156-3.3984-2.8984-6-6.1992-6h-0.80078v-24c-0.10156-3.3984-2.8984-6-6.1992-6h-1.8008v-16c0-3.3008-2.6992-6-6-6s-6 2.6992-6 6v16h-2.1992c-3.1992 0-5.8008 2.6016-5.8008 5.8008v0.19922 24h-1.1992c-3.1992 0-5.8008 2.6016-5.8008 5.8008v0.19922z"/>
  <path d="m298.2 140h30c3.1992 0 5.8008-2.6016 5.8008-5.8008v-0.19922-50c0.10156-3.1992-2.3984-5.8984-5.6016-6h-0.19922-1.1992v-24c0.10156-3.1992-2.3984-5.8984-5.6016-6h-0.19922-2.1992v-16c0-3.3008-2.6992-6-6-6s-6 2.6992-6 6v16h-1.8008c-3.3984 0-6.1016 2.6016-6.1992 6v24h-0.80078c-3.3984 0-6.1016 2.6016-6.1992 6v50c0.10156 3.3984 2.8984 6 6.1992 6z"/>
  <path d="m241 140h30c3.3008 0 6-2.6992 6-6v-50c0-3.3008-2.6992-6-6-6h-1v-24c0-3.3008-2.6992-6-6-6h-2v-16c0-3.3008-2.6992-6-6-6s-6 2.6992-6 6v16h-2c-3.3008 0-6 2.6992-6 6v24h-1c-3.3008 0-6 2.6992-6 6v50c0 3.3008 2.6992 6 6 6z"/>
  <path d="m334 378c0.10156-3.1992-2.3984-5.8984-5.6016-6h-0.19922-30c-3.3984 0-6.1016 2.6016-6.1992 6v50c0.10156 3.3984 2.8984 6 6.1992 6h0.80078v24c0.10156 3.3984 2.8984 6 6.1992 6h1.8008v16c0 3.3008 2.6992 6 6 6s6-2.6992 6-6v-16h2.1992c3.1992 0 5.8008-2.6016 5.8008-5.8008v-0.19922-24h1.1992c3.1992 0 5.8008-2.6016 5.8008-5.8008v-0.19922z"/>
  <path d="m213.8 372h-30c-3.1992 0-5.8008 2.6016-5.8008 5.8008v0.19922 50c-0.10156 3.1992 2.3984 5.8984 5.6016 6h0.19922 1.1992v24c-0.10156 3.1992 2.3984 5.8984 5.6016 6h0.19922 2.1992v16c0 3.3008 2.6992 6 6 6s6-2.6992 6-6v-16h1.8008c3.3984 0 6.1016-2.6016 6.1992-6v-24h0.80078c3.3984 0 6.1016-2.6016 6.1992-6v-50c-0.10156-3.3984-2.8984-6-6.1992-6z"/>
  <path d="m271 372h-30c-3.3008 0-6 2.6992-6 6v50c0 3.3008 2.6992 6 6 6h1v24c0 3.3008 2.6992 6 6 6h2v16c0 3.3008 2.6992 6 6 6s6-2.6992 6-6v-16h2c3.3008 0 6-2.6992 6-6v-24h1c3.3008 0 6-2.6992 6-6v-50c0-3.3008-2.6992-6-6-6z"/>
  <path d="m378 220h50c3.3984-0.10156 6-2.8984 6-6.1992v-0.80078h24c3.3984-0.10156 6-2.8984 6-6.1992v-1.8008h16c3.3008 0 6-2.6992 6-6s-2.6992-6-6-6h-16v-2.1992c0-3.1992-2.6016-5.8008-5.8008-5.8008h-0.19922-24v-1.1992c0-3.1992-2.6016-5.8008-5.8008-5.8008h-0.19922-50c-3.1992-0.10156-5.8984 2.3984-6 5.6016v0.19922 30c0 3.3008 2.6016 6.0977 6 6.1992z"/>
  <path d="m480 307h-16v-1.8008c0-3.3984-2.6016-6.1016-6-6.1992h-24v-0.80078c0-3.3984-2.6016-6.1016-6-6.1992h-50c-3.3984 0.10156-6 2.8984-6 6.1992v30c0 3.1992 2.6016 5.8008 5.8008 5.8008h0.19922 50c3.1992 0.10156 5.8984-2.3984 6-5.6016v-0.19922-1.1992h24c3.1992 0.10156 5.8984-2.3984 6-5.6016v-0.19922-2.1992h16c3.3008 0 6-2.6992 6-6s-2.6992-6-6-6z"/>
  <path d="m480 250h-16v-2c0-3.3008-2.6992-6-6-6h-24v-1c0-3.3008-2.6992-6-6-6h-50c-3.3008 0-6 2.6992-6 6v30c0 3.3008 2.6992 6 6 6h50c3.3008 0 6-2.6992 6-6v-1h24c3.3008 0 6-2.6992 6-6v-2h16c3.3008 0 6-2.6992 6-6s-2.6992-6-6-6z"/>
  <path d="m134 292h-50c-3.3984 0.10156-6 2.8984-6 6.1992v0.80078h-24c-3.3984 0.10156-6 2.8984-6 6.1992v1.8008h-16c-3.3008 0-6 2.6992-6 6s2.6992 6 6 6h16v2.1992c0 3.1992 2.6016 5.8008 5.8008 5.8008h0.19922 24v1.1992c0 3.1992 2.6016 5.8008 5.8008 5.8008h0.19922 50c3.1992 0.10156 5.8984-2.3984 6-5.6016v-0.19922-30c0-3.3008-2.6016-6.0977-6-6.1992z"/>
  <path d="m134.2 178h-0.19922-50c-3.1992-0.10156-5.8984 2.3984-6 5.6016v0.19922 1.1992h-24c-3.1992-0.10156-5.8984 2.3984-6 5.6016v0.19922 2.1992h-16c-3.3008 0-6 2.6992-6 6s2.6992 6 6 6h16v1.8008c0 3.3984 2.6016 6.1016 6 6.1992h24v0.80078c0 3.3984 2.6016 6.1016 6 6.1992h50c3.3984-0.10156 6-2.8984 6-6.1992v-30c0-3.1992-2.6016-5.8008-5.8008-5.8008z"/>
  <path d="m134 235h-50c-3.3008 0-6 2.6992-6 6v1h-24c-3.3008 0-6 2.6992-6 6v2h-16c-3.3008 0-6 2.6992-6 6s2.6992 6 6 6h16v2c0 3.3008 2.6992 6 6 6h24v1c0 3.3008 2.6992 6 6 6h50c3.3008 0 6-2.6992 6-6v-30c0-3.3008-2.6992-6-6-6z"/>
 </g>
</svg>
