<?xml version="1.0" encoding="UTF-8"?>
<svg width="3600pt" height="3600pt" version="1.1" viewBox="0 0 3600 3600" xmlns="http://www.w3.org/2000/svg">
 <g>
  <path d="m1335.9 1335.9h928.12v928.12h-928.12z"/>
  <path d="m2362.5 1054.7h-1125c-101.25 0-182.81 81.562-182.81 182.81v1125c0 101.25 81.562 182.81 182.81 182.81h1125c101.25 0 182.81-81.562 182.81-182.81v-1125c0-101.25-81.562-182.81-182.81-182.81zm-14.062 1251.6c0 23.203-18.984 42.188-42.188 42.188h-1012.5c-23.203 0-42.188-18.984-42.188-42.188v-1012.5c0-23.203 18.984-42.188 42.188-42.188h1012.5c23.203 0 42.188 18.984 42.188 42.188z"/>
  <path d="m1251.6 942.19c-0.70312 22.5 16.875 41.484 39.375 42.188h1.4062 210.94c23.906 0 42.891-18.281 43.594-42.188v-351.56c-0.70312-23.906-20.391-42.188-43.594-42.188h-5.625v-168.75c-0.70312-23.906-20.391-42.188-43.594-42.188h-12.656v-112.5c0-23.203-18.984-42.188-42.188-42.188s-42.188 18.984-42.188 42.188v112.5h-15.469c-22.5 0-40.781 18.281-40.781 40.781v1.4062 168.75h-8.4375c-22.5 0-40.781 18.281-40.781 40.781v1.4062z"/>
  <path d="m2096.7 984.38h210.94c22.5 0 40.781-18.281 40.781-40.781v-1.4062-351.56c0.70312-22.5-16.875-41.484-39.375-42.188h-1.4062-8.4375v-168.75c0.70312-22.5-16.875-41.484-39.375-42.188h-1.4062-15.469v-112.5c0-23.203-18.984-42.188-42.188-42.188s-42.188 18.984-42.188 42.188v112.5h-12.656c-23.906 0-42.891 18.281-43.594 42.188v168.75h-5.625c-23.906 0-42.891 18.281-43.594 42.188v351.56c0.70312 23.906 20.391 42.188 43.594 42.188z"/>
  <path d="m1694.5 984.38h210.94c23.203 0 42.188-18.984 42.188-42.188v-351.56c0-23.203-18.984-42.188-42.188-42.188h-7.0312v-168.75c0-23.203-18.984-42.188-42.188-42.188h-14.062v-112.5c0-23.203-18.984-42.188-42.188-42.188s-42.188 18.984-42.188 42.188v112.5h-14.062c-23.203 0-42.188 18.984-42.188 42.188v168.75h-7.0312c-23.203 0-42.188 18.984-42.188 42.188v351.56c0 23.203 18.984 42.188 42.188 42.188z"/>
  <path d="m2348.4 2657.8c0.70312-22.5-16.875-41.484-39.375-42.188h-1.4062-210.94c-23.906 0-42.891 18.281-43.594 42.188v351.56c0.70312 23.906 20.391 42.188 43.594 42.188h5.625v168.75c0.70312 23.906 20.391 42.188 43.594 42.188h12.656v112.5c0 23.203 18.984 42.188 42.188 42.188s42.188-18.984 42.188-42.188v-112.5h15.469c22.5 0 40.781-18.281 40.781-40.781v-1.4062-168.75h8.4375c22.5 0 40.781-18.281 40.781-40.781v-1.4062z"/>
  <path d="m1503.3 2615.6h-210.94c-22.5 0-40.781 18.281-40.781 40.781v1.4062 351.56c-0.70312 22.5 16.875 41.484 39.375 42.188h1.4062 8.4375v168.75c-0.70312 22.5 16.875 41.484 39.375 42.188h1.4062 15.469v112.5c0 23.203 18.984 42.188 42.188 42.188s42.188-18.984 42.188-42.188v-112.5h12.656c23.906 0 42.891-18.281 43.594-42.188v-168.75h5.625c23.906 0 42.891-18.281 43.594-42.188v-351.56c-0.70312-23.906-20.391-42.188-43.594-42.188z"/>
  <path d="m1905.5 2615.6h-210.94c-23.203 0-42.188 18.984-42.188 42.188v351.56c0 23.203 18.984 42.188 42.188 42.188h7.0312v168.75c0 23.203 18.984 42.188 42.188 42.188h14.062v112.5c0 23.203 18.984 42.188 42.188 42.188s42.188-18.984 42.188-42.188v-112.5h14.062c23.203 0 42.188-18.984 42.188-42.188v-168.75h7.0312c23.203 0 42.188-18.984 42.188-42.188v-351.56c0-23.203-18.984-42.188-42.188-42.188z"/>
  <path d="m2657.8 1546.9h351.56c23.906-0.70312 42.188-20.391 42.188-43.594v-5.625h168.75c23.906-0.70312 42.188-20.391 42.188-43.594v-12.656h112.5c23.203 0 42.188-18.984 42.188-42.188s-18.984-42.188-42.188-42.188h-112.5v-15.469c0-22.5-18.281-40.781-40.781-40.781h-1.4062-168.75v-8.4375c0-22.5-18.281-40.781-40.781-40.781h-1.4062-351.56c-22.5-0.70312-41.484 16.875-42.188 39.375v1.4062 210.94c0 23.203 18.281 42.891 42.188 43.594z"/>
  <path d="m3375 2158.6h-112.5v-12.656c0-23.906-18.281-42.891-42.188-43.594h-168.75v-5.625c0-23.906-18.281-42.891-42.188-43.594h-351.56c-23.906 0.70312-42.188 20.391-42.188 43.594v210.94c0 22.5 18.281 40.781 40.781 40.781h1.4062 351.56c22.5 0.70312 41.484-16.875 42.188-39.375v-1.4062-8.4375h168.75c22.5 0.70312 41.484-16.875 42.188-39.375v-1.4062-15.469h112.5c23.203 0 42.188-18.984 42.188-42.188s-18.984-42.188-42.188-42.188z"/>
  <path d="m3375 1757.8h-112.5v-14.062c0-23.203-18.984-42.188-42.188-42.188h-168.75v-7.0312c0-23.203-18.984-42.188-42.188-42.188h-351.56c-23.203 0-42.188 18.984-42.188 42.188v210.94c0 23.203 18.984 42.188 42.188 42.188h351.56c23.203 0 42.188-18.984 42.188-42.188v-7.0312h168.75c23.203 0 42.188-18.984 42.188-42.188v-14.062h112.5c23.203 0 42.188-18.984 42.188-42.188s-18.984-42.188-42.188-42.188z"/>
  <path d="m942.19 2053.1h-351.56c-23.906 0.70312-42.188 20.391-42.188 43.594v5.625h-168.75c-23.906 0.70312-42.188 20.391-42.188 43.594v12.656h-112.5c-23.203 0-42.188 18.984-42.188 42.188s18.984 42.188 42.188 42.188h112.5v15.469c0 22.5 18.281 40.781 40.781 40.781h1.4062 168.75v8.4375c0 22.5 18.281 40.781 40.781 40.781h1.4062 351.56c22.5 0.70312 41.484-16.875 42.188-39.375v-1.4062-210.94c0-23.203-18.281-42.891-42.188-43.594z"/>
  <path d="m943.59 1251.6h-1.4062-351.56c-22.5-0.70312-41.484 16.875-42.188 39.375v1.4062 8.4375h-168.75c-22.5-0.70312-41.484 16.875-42.188 39.375v1.4062 15.469h-112.5c-23.203 0-42.188 18.984-42.188 42.188s18.984 42.188 42.188 42.188h112.5v12.656c0 23.906 18.281 42.891 42.188 43.594h168.75v5.625c0 23.906 18.281 42.891 42.188 43.594h351.56c23.906-0.70312 42.188-20.391 42.188-43.594v-210.94c0-22.5-18.281-40.781-40.781-40.781z"/>
  <path d="m942.19 1652.3h-351.56c-23.203 0-42.188 18.984-42.188 42.188v7.0312h-168.75c-23.203 0-42.188 18.984-42.188 42.188v14.062h-112.5c-23.203 0-42.188 18.984-42.188 42.188s18.984 42.188 42.188 42.188h112.5v14.062c0 23.203 18.984 42.188 42.188 42.188h168.75v7.0312c0 23.203 18.984 42.188 42.188 42.188h351.56c23.203 0 42.188-18.984 42.188-42.188v-210.94c0-23.203-18.984-42.188-42.188-42.188z"/>
 </g>
</svg>
