<?xml version="1.0" encoding="UTF-8" standalone="no"?>
<svg
   width="3600pt"
   height="3600pt"
   version="1.1"
   viewBox="0 0 3600 3600"
   id="svg938"
   sodipodi:docname="logo 3600x3600 green.svg"
   inkscape:version="1.1 (c4e8f9e, 2021-05-24)"
   xmlns:inkscape="http://www.inkscape.org/namespaces/inkscape"
   xmlns:sodipodi="http://sodipodi.sourceforge.net/DTD/sodipodi-0.dtd"
   xmlns="http://www.w3.org/2000/svg"
   xmlns:svg="http://www.w3.org/2000/svg">
  <defs
     id="defs942" />
  <sodipodi:namedview
     id="namedview940"
     pagecolor="#ffffff"
     bordercolor="#666666"
     borderopacity="1.0"
     inkscape:pageshadow="2"
     inkscape:pageopacity="0.0"
     inkscape:pagecheckerboard="0"
     inkscape:document-units="pt"
     showgrid="false"
     inkscape:zoom="0.104375"
     inkscape:cx="2400"
     inkscape:cy="2400"
     inkscape:window-width="1312"
     inkscape:window-height="955"
     inkscape:window-x="0"
     inkscape:window-y="25"
     inkscape:window-maximized="0"
     inkscape:current-layer="svg938" />
  <g
     id="g936"
     style="fill:#003637;fill-opacity:1">
    <path
       d="m 1335.9,1335.9 h 928.12 v 928.12 H 1335.9 Z"
       id="path908"
       style="fill:#003637;fill-opacity:1" />
    <path
       d="m 2362.5,1054.7 h -1125 c -101.25,0 -182.81,81.562 -182.81,182.81 v 1125 c 0,101.25 81.562,182.81 182.81,182.81 h 1125 c 101.25,0 182.81,-81.562 182.81,-182.81 v -1125 c 0,-101.25 -81.562,-182.81 -182.81,-182.81 z m -14.062,1251.6 c 0,23.203 -18.984,42.188 -42.188,42.188 h -1012.5 c -23.203,0 -42.188,-18.984 -42.188,-42.188 V 1293.8 c 0,-23.203 18.984,-42.188 42.188,-42.188 h 1012.5 c 23.203,0 42.188,18.984 42.188,42.188 z"
       id="path910"
       style="fill:#003637;fill-opacity:1" />
    <path
       d="m 1251.6,942.19 c -0.7031,22.5 16.875,41.484 39.375,42.188 h 1.4062 210.94 c 23.906,0 42.891,-18.281 43.594,-42.188 V 590.63 c -0.7031,-23.906 -20.391,-42.188 -43.594,-42.188 h -5.625 v -168.75 c -0.7031,-23.906 -20.391,-42.188 -43.594,-42.188 h -12.656 v -112.5 c 0,-23.203 -18.984,-42.188 -42.188,-42.188 -23.204,0 -42.188,18.984 -42.188,42.188 v 112.5 h -15.469 c -22.5,0 -40.781,18.281 -40.781,40.781 v 1.4062 168.75 h -8.4375 c -22.5,0 -40.781,18.281 -40.781,40.781 v 1.4062 z"
       id="path912"
       style="fill:#003637;fill-opacity:1" />
    <path
       d="m 2096.7,984.38 h 210.94 c 22.5,0 40.781,-18.281 40.781,-40.781 v -1.4062 -351.56 c 0.7031,-22.5 -16.875,-41.484 -39.375,-42.188 h -1.4062 -8.4375 v -168.75 c 0.7031,-22.5 -16.875,-41.484 -39.375,-42.188 h -1.4062 -15.469 v -112.5 c 0,-23.203 -18.984,-42.188 -42.188,-42.188 -23.204,0 -42.188,18.984 -42.188,42.188 v 112.5 h -12.656 c -23.906,0 -42.891,18.281 -43.594,42.188 v 168.75 h -5.625 c -23.906,0 -42.891,18.281 -43.594,42.188 v 351.56 c 0.7031,23.906 20.391,42.188 43.594,42.188 z"
       id="path914"
       style="fill:#003637;fill-opacity:1" />
    <path
       d="m 1694.5,984.38 h 210.94 c 23.203,0 42.188,-18.984 42.188,-42.188 v -351.56 c 0,-23.203 -18.984,-42.188 -42.188,-42.188 h -7.0312 v -168.75 c 0,-23.203 -18.984,-42.188 -42.188,-42.188 h -14.062 v -112.5 c 0,-23.203 -18.984,-42.188 -42.188,-42.188 -23.204,0 -42.188,18.984 -42.188,42.188 v 112.5 h -14.062 c -23.203,0 -42.188,18.984 -42.188,42.188 v 168.75 h -7.0312 c -23.203,0 -42.188,18.984 -42.188,42.188 v 351.56 c 0,23.203 18.984,42.188 42.188,42.188 z"
       id="path916"
       style="fill:#003637;fill-opacity:1" />
    <path
       d="m 2348.4,2657.8 c 0.7031,-22.5 -16.875,-41.484 -39.375,-42.188 h -1.4062 -210.94 c -23.906,0 -42.891,18.281 -43.594,42.188 v 351.56 c 0.7031,23.906 20.391,42.188 43.594,42.188 h 5.625 v 168.75 c 0.7031,23.906 20.391,42.188 43.594,42.188 h 12.656 v 112.5 c 0,23.203 18.984,42.188 42.188,42.188 23.204,0 42.188,-18.984 42.188,-42.188 v -112.5 h 15.469 c 22.5,0 40.781,-18.281 40.781,-40.781 v -1.4062 -168.75 h 8.4375 c 22.5,0 40.781,-18.281 40.781,-40.781 v -1.4062 z"
       id="path918"
       style="fill:#003637;fill-opacity:1" />
    <path
       d="m 1503.3,2615.6 h -210.94 c -22.5,0 -40.781,18.281 -40.781,40.781 v 1.4062 351.56 c -0.7031,22.5 16.875,41.484 39.375,42.188 h 1.4062 8.4375 v 168.75 c -0.7031,22.5 16.875,41.484 39.375,42.188 h 1.4062 15.469 v 112.5 c 0,23.203 18.984,42.188 42.188,42.188 23.204,0 42.188,-18.984 42.188,-42.188 v -112.5 h 12.656 c 23.906,0 42.891,-18.281 43.594,-42.188 v -168.75 h 5.625 c 23.906,0 42.891,-18.281 43.594,-42.188 v -351.56 c -0.7031,-23.906 -20.391,-42.188 -43.594,-42.188 z"
       id="path920"
       style="fill:#003637;fill-opacity:1" />
    <path
       d="m 1905.5,2615.6 h -210.94 c -23.203,0 -42.188,18.984 -42.188,42.188 v 351.56 c 0,23.203 18.984,42.188 42.188,42.188 h 7.0312 v 168.75 c 0,23.203 18.984,42.188 42.188,42.188 h 14.062 v 112.5 c 0,23.203 18.984,42.188 42.188,42.188 23.204,0 42.188,-18.984 42.188,-42.188 v -112.5 h 14.062 c 23.203,0 42.188,-18.984 42.188,-42.188 v -168.75 h 7.0312 c 23.203,0 42.188,-18.984 42.188,-42.188 v -351.56 c 0,-23.203 -18.984,-42.188 -42.188,-42.188 z"
       id="path922"
       style="fill:#003637;fill-opacity:1" />
    <path
       d="m 2657.8,1546.9 h 351.56 c 23.906,-0.7031 42.188,-20.391 42.188,-43.594 v -5.625 h 168.75 c 23.906,-0.7031 42.188,-20.391 42.188,-43.594 v -12.656 h 112.5 c 23.203,0 42.188,-18.984 42.188,-42.188 0,-23.204 -18.984,-42.188 -42.188,-42.188 h -112.5 v -15.469 c 0,-22.5 -18.281,-40.781 -40.781,-40.781 h -1.4062 -168.75 v -8.4375 c 0,-22.5 -18.281,-40.781 -40.781,-40.781 h -1.4062 -351.56 c -22.5,-0.7031 -41.484,16.875 -42.188,39.375 v 1.4062 210.94 c 0,23.203 18.281,42.891 42.188,43.594 z"
       id="path924"
       style="fill:#003637;fill-opacity:1" />
    <path
       d="m 3375,2158.6 h -112.5 v -12.656 c 0,-23.906 -18.281,-42.891 -42.188,-43.594 h -168.75 v -5.625 c 0,-23.906 -18.281,-42.891 -42.188,-43.594 h -351.56 c -23.906,0.7031 -42.188,20.391 -42.188,43.594 v 210.94 c 0,22.5 18.281,40.781 40.781,40.781 h 1.4062 351.56 c 22.5,0.7031 41.484,-16.875 42.188,-39.375 v -1.4062 -8.4375 h 168.75 c 22.5,0.7031 41.484,-16.875 42.188,-39.375 v -1.4062 -15.469 h 112.5 c 23.203,0 42.188,-18.984 42.188,-42.188 0,-23.204 -18.984,-42.188 -42.188,-42.188 z"
       id="path926"
       style="fill:#003637;fill-opacity:1" />
    <path
       d="m 3375,1757.8 h -112.5 v -14.062 c 0,-23.203 -18.984,-42.188 -42.188,-42.188 h -168.75 v -7.0312 c 0,-23.203 -18.984,-42.188 -42.188,-42.188 h -351.56 c -23.203,0 -42.188,18.984 -42.188,42.188 v 210.94 c 0,23.203 18.984,42.188 42.188,42.188 h 351.56 c 23.203,0 42.188,-18.984 42.188,-42.188 v -7.0312 h 168.75 c 23.203,0 42.188,-18.984 42.188,-42.188 v -14.062 H 3375 c 23.203,0 42.188,-18.984 42.188,-42.188 0,-23.204 -18.984,-42.188 -42.188,-42.188 z"
       id="path928"
       style="fill:#003637;fill-opacity:1" />
    <path
       d="M 942.19,2053.1 H 590.63 c -23.906,0.7031 -42.188,20.391 -42.188,43.594 v 5.625 h -168.75 c -23.906,0.7031 -42.188,20.391 -42.188,43.594 v 12.656 h -112.5 c -23.203,0 -42.188,18.984 -42.188,42.188 0,23.204 18.984,42.188 42.188,42.188 h 112.5 v 15.469 c 0,22.5 18.281,40.781 40.781,40.781 h 1.4062 168.75 v 8.4375 c 0,22.5 18.281,40.781 40.781,40.781 h 1.4062 351.56 c 22.5,0.7031 41.484,-16.875 42.188,-39.375 v -1.4062 -210.94 c 0,-23.203 -18.281,-42.891 -42.188,-43.594 z"
       id="path930"
       style="fill:#003637;fill-opacity:1" />
    <path
       d="m 943.59,1251.6 h -1.4062 -351.56 c -22.5,-0.7031 -41.484,16.875 -42.188,39.375 v 1.4062 8.4375 h -168.75 c -22.5,-0.7031 -41.484,16.875 -42.188,39.375 v 1.4062 15.469 h -112.5 c -23.203,0 -42.188,18.984 -42.188,42.188 0,23.204 18.984,42.188 42.188,42.188 h 112.5 v 12.656 c 0,23.906 18.281,42.891 42.188,43.594 h 168.75 v 5.625 c 0,23.906 18.281,42.891 42.188,43.594 h 351.56 c 23.906,-0.7031 42.188,-20.391 42.188,-43.594 v -210.94 c 0,-22.5 -18.281,-40.781 -40.781,-40.781 z"
       id="path932"
       style="fill:#003637;fill-opacity:1" />
    <path
       d="M 942.19,1652.3 H 590.63 c -23.203,0 -42.188,18.984 -42.188,42.188 v 7.0312 h -168.75 c -23.203,0 -42.188,18.984 -42.188,42.188 v 14.062 h -112.5 c -23.203,0 -42.188,18.984 -42.188,42.188 0,23.204 18.984,42.188 42.188,42.188 h 112.5 v 14.062 c 0,23.203 18.984,42.188 42.188,42.188 h 168.75 v 7.0312 c 0,23.203 18.984,42.188 42.188,42.188 h 351.56 c 23.203,0 42.188,-18.984 42.188,-42.188 v -210.94 c 0,-23.203 -18.984,-42.188 -42.188,-42.188 z"
       id="path934"
       style="fill:#003637;fill-opacity:1" />
  </g>
</svg>
