<?xml version="1.0" encoding="UTF-8"?>
<svg width="3600pt" style='fill: #003637;' height="3600pt" version="1.1" viewBox="0 0 3600 3600" xmlns="http://www.w3.org/2000/svg">
 <g>
  <path d="m85.695 3518.8h-18.027c-7.4805 0-13.535 6.0547-13.535 13.535s6.0547 13.535 13.535 13.535h18.027c7.4805 0 13.535-6.0547 13.535-13.535s-6.0547-13.535-13.535-13.535z"/>
  <path d="m3261.7 3518.8h-27.066c-7.4805 0-13.535 6.0547-13.535 13.535s6.0547 13.535 13.535 13.535h27.066c7.4805 0 13.535-6.0547 13.535-13.535s-6.0547-13.535-13.535-13.535z"/>
  <path d="m1350.1 3377.8h535.27c7.4805 0 13.535-6.0547 13.535-13.535 0-7.4805-6.0547-13.535-13.535-13.535h-535.27c-7.4805 0-13.535 6.0547-13.535 13.535 0 7.4805 6.0547 13.535 13.535 13.535z"/>
  <path d="m1620.2 2838.9c-38.617 0-70.023 31.402-70.023 70.023 0 38.617 31.402 70.023 70.023 70.023 38.617 0 70.023-31.402 70.023-70.023-0.003907-38.621-31.406-70.023-70.023-70.023zm0 112.98c-23.684 0-42.953-19.27-42.953-42.953 0-23.684 19.27-42.953 42.953-42.953 23.684 0 42.953 19.27 42.953 42.953 0 23.684-19.27 42.953-42.953 42.953z"/>
  <path d="m358.07 950.01c33.016 0 59.898-26.883 59.898-59.898s-26.883-59.898-59.898-59.898-59.898 26.883-59.898 59.898 26.883 59.898 59.898 59.898zm0-92.727c18.105 0 32.832 14.723 32.832 32.832 0 18.105-14.723 32.832-32.832 32.832-18.105 0-32.832-14.723-32.832-32.832 0-18.109 14.723-32.832 32.832-32.832z"/>
  <path d="m551.21 950.01c33.016 0 59.898-26.883 59.898-59.898s-26.883-59.898-59.898-59.898-59.898 26.883-59.898 59.898 26.883 59.898 59.898 59.898zm0-92.727c18.105 0 32.832 14.723 32.832 32.832 0 18.105-14.723 32.832-32.832 32.832-18.105 0-32.832-14.723-32.832-32.832 0-18.109 14.723-32.832 32.832-32.832z"/>
  <path d="m744.36 950.01c33.016 0 59.898-26.883 59.898-59.898s-26.883-59.898-59.898-59.898-59.898 26.883-59.898 59.898c0.003906 33.016 26.887 59.898 59.898 59.898zm0-92.727c18.105 0 32.832 14.723 32.832 32.832 0 18.105-14.723 32.828-32.832 32.828-18.105 0-32.832-14.723-32.832-32.832 0.003906-18.105 14.727-32.828 32.832-32.828z"/>
  <path d="m3351.9 863.79h0.87109 0.027344c46.047-0.52734 83.184-38.434 82.789-84.48-0.47656-46.02-38.699-82.18-84.43-82.711-22.285 0.21094-43.164 9.1211-58.812 25.031-15.676 15.965-24.188 37.008-23.949 59.262 0.18359 22.336 9.0664 43.27 25.059 58.945 15.754 15.469 36.477 23.953 58.445 23.953zm-40.258-123.18c10.602-10.785 24.715-16.812 39.781-16.945h0.50391c30.926 0 56.277 24.98 56.594 55.906 0.26562 31.137-24.848 56.777-56.012 57.148-13.879 0.37109-29.289-5.5781-40.098-16.203-10.812-10.602-16.812-24.742-16.945-39.863-0.16016-15.035 5.6016-29.258 16.176-40.043z"/>
  <path d="m3468.2 614.97-877.75-544.44c-0.14063-0.097656-0.28906-0.17188-0.42969-0.26953l-6.9883-4.3359c-0.95703-0.58203-2.0156-0.78906-3.043-1.1172-12.953-6.5938-27.391-10.668-42.898-10.668-52.523 0-95.266 42.742-95.266 95.266v485.32l-2232.8-0.003906c-85.328 0-154.74 69.414-154.74 154.71v2123.7c0 85.328 69.414 154.74 154.74 154.74h1097.4c-3.4258 144.88-60.977 280.69-163.84 383.57l-67.379 67.375h-854.16c-7.4805 0-13.535 6.0547-13.535 13.535s6.0547 13.535 13.535 13.535h1937.7l940.52-0.003907c7.4805 0 13.535-6.0547 13.535-13.535s-6.0547-13.535-13.535-13.535l-934.92 0.003906-67.379-67.379c-102.86-102.86-160.41-238.66-163.84-383.57h1097.4c85.328 0 154.74-69.414 154.74-154.74v-149.67c11.301 8.4727 25.18 13.676 40.363 13.676h252.54c37.324 0 67.668-30.344 67.668-67.668v-1954.7c0-57.281-29.047-109.54-77.711-139.78zm-231.37 87.629-14.141-25.113c-1.2148-2.168-0.87109-4.8125 0.87109-6.6094l18.926-19.375c1.7461-1.7969 4.4414-2.2188 6.6875-1.0312l25.375 13.641c4.043 2.2188 9.0391 2.1406 13.059-0.13281 8.5117-4.8359 17.312-8.6172 26.934-11.578 4.3359-1.3203 7.7188-4.7578 9.0156-9.1445l8.0625-27.859c0.6875-2.4062 2.8281-4.0195 5.3398-4.043l27.066-0.23828h0.054688c2.457 0 4.5977 1.5859 5.3125 3.9922l8.3789 27.57c1.1914 3.9141 4.0977 7.0859 7.9023 8.6172l29.949 12.055c3.7812 1.5312 8.0898 1.2422 11.656-0.73828l25.219-14.117c2.1953-1.1914 4.8633-0.87109 6.6602 0.89844l19.27 18.98c1.7695 1.7461 2.168 4.4688 1.0312 6.6094l-13.613 25.43c-2.1953 4.0977-2.1406 9.0391 0.16016 13.086 3.4609 6.0781 6.4219 12.504 8.75 18.848 0.92578 2.668 1.8516 5.3125 2.6953 8.1406 1.3203 4.4141 4.8125 7.8516 9.25 9.0938l27.836 7.9297c2.4062 0.6875 4.043 2.8281 4.0703 5.3125l0.23828 27.113c0.027344 2.4844-1.5586 4.6523-3.9648 5.3672l-28.758 8.8828c-3.9648 1.5859-6.9531 4.9414-8.0625 9.0938-0.60938 2.2461-1.3203 4.5469-2.0898 6.7422-2.4062 6.9258-5.3398 13.719-8.7773 20.195-2.1406 4.043-2.0898 8.9336 0.16016 12.926l14.117 25.191c1.1914 2.1406 0.84766 4.8359-0.87109 6.582l-19.004 19.453c-1.6914 1.7695-4.4141 2.2734-6.6328 1.0312l-25.562-13.664c-4.0703-2.168-8.9883-2.1133-13.059 0.18359-8.5391 4.8359-17.551 8.6719-26.75 11.367-4.4688 1.2969-7.9297 4.8125-9.1992 9.2773l-7.9297 27.836c-0.6875 2.4062-2.8281 4.043-5.3125 4.0703-3.5117 0.03125 0.22266-0.003906-27.172 0.23828-2.4336 0-4.5977-1.6133-5.3125-3.9375l-8.4336-27.598c-1.3477-4.3867-4.8359-7.7969-9.25-9.0664-9.5703-2.6953-18.688-6.3984-27.066-10.969-2.0352-1.082-4.2539-1.6406-6.4766-1.6406-2.2734 0-4.5195 0.58203-6.582 1.7188l-25.305 14.055c-2.1406 1.2422-4.8359 0.87109-6.6094-0.89844l-19.27-18.953c-1.7695-1.7188-2.168-4.4688-1.0312-6.6094l13.613-25.402c2.1953-4.0977 2.1406-9.0391-0.16016-13.086-4.7852-8.4336-8.6953-17.523-11.605-26.988-1.3203-4.3867-4.7852-7.7969-9.1992-9.0391l-27.781-7.957c-2.3516-0.6875-4.0195-2.8555-4.043-5.3125l-0.28906-27.094c-0.027344-2.457 1.5859-4.6523 3.9375-5.3672l27.676-8.4844c4.4414-1.375 7.8789-4.918 9.0938-9.3828 2.4336-8.9062 6.0547-17.738 11.051-27.043 2.2188-4.0703 2.168-9.0117-0.10547-13.055zm279.52 27.293-15.32-4.375c-0.23828-0.73828-0.50391-1.4805-0.76562-2.2461-2.0625-5.6055-4.4414-11.129-7.1367-16.469l9.2617-17.32c6.7539 12.531 11.371 26.164 13.961 40.41zm-125.03-130.76 44.555 27.637-16.152 9.0586-17.922-7.2148-6.5039-21.359c-0.89062-2.957-2.3516-5.6094-3.9766-8.1211zm-205.98 1735.8h333.51v120.98h-333.51zm0-255.07c0.84766-21.648 18.59-39.031 40.441-39.031h252.46c22.391 0 40.602 18.211 40.602 40.602v80.383h-333.51zm292.91-66.098h-252.54c-15.184 0-29.062 5.2031-40.363 13.676v-1202.2l17.633 5.0586c2.3008 6.3984 4.9688 12.637 8.0078 18.66l-10.203 19.031c-6.7656 12.688-4.3359 28.602 5.9219 38.672l19.242 18.926c10.258 10.125 26.168 12.266 38.777 5.2617l18.98-10.547c6.0273 2.9062 12.266 5.4453 18.742 7.5859l6.3438 20.75c4.1758 13.641 16.969 23.078 31.191 23.078h0.28906l27.121-0.23828c14.352-0.13281 27.148-9.8867 31.086-23.738l5.9492-20.855c6.3438-2.2188 12.555-4.8633 18.609-7.9023l19.191 10.258c12.715 6.7656 28.629 4.3086 38.727-6l19.004-19.453c10.07-10.281 12.16-26.25 5.1289-38.75l-10.602-18.926c2.668-5.6055 5.0469-11.395 7.0859-17.262 0.13281-0.44922 0.28906-0.89844 0.44922-1.3477l16.832-5.1406v1205.2c-11.344-8.5781-25.305-13.867-40.602-13.867zm-941.16-1932.6c13.797 0 26.609 4.1797 37.355 11.246l1.0508 0.64844c17.977 12.297 29.816 32.93 29.816 56.305 0 37.613-30.609 68.223-68.223 68.223-37.613 0-68.199-30.609-68.199-68.223 0-37.617 30.586-68.199 68.199-68.199zm-68.199 134.5c17.32 17.824 41.445 28.992 68.199 28.992 52.551 0 95.293-42.742 95.293-95.293 0-7.9531-1.2656-15.559-3.1133-22.945l738.77 458.24c-1.3359-0.17187-2.5938-0.65234-3.9648-0.65234h-0.28906l-27.094 0.23828c-14.352 0.13281-27.148 9.8594-31.086 23.656l-6.0547 20.934c-6.4492 2.2734-12.582 4.918-18.582 7.957l-18.98-10.203c-12.766-6.8477-28.734-4.4141-38.855 5.9492l-18.926 19.375c-10.098 10.309-12.188 26.273-5.1016 38.832l10.574 18.742c-3.0938 6.3164-5.6289 12.531-7.7188 18.77l-20.777 6.3711c-1.8672 0.57422-3.4219 1.6719-5.1172 2.5469-21.496-59.645-78.5-102.49-145.47-102.49l-561.71-0.007812zm-2259.9 446.09h2232.8v114.14l-2232.8-0.003906c-7.4805 0-13.535 6.0547-13.535 13.535v1830.4c0 7.4805 6.0547 13.535 13.535 13.535h2821.5c7.4805 0 13.535-6.0547 13.535-13.535v-1830.4c0-7.4805-6.0547-13.535-13.535-13.535h-561.68v-114.14h561.71c70.391 0 127.67 57.254 127.67 127.64 0 3.4805 0.007812 1965.2 0 1960.6l-3076.9 0.003906v-1960.6c0-70.391 57.281-127.64 127.67-127.64zm13.535 342.76h2219.3v94.949h-81.812c-7.4805 0-13.535 6.0547-13.535 13.535 0 7.4805 6.0547 13.535 13.535 13.535h161.69c7.4805 0 13.535-6.0547 13.535-13.535 0-7.4805-6.0547-13.535-13.535-13.535h-52.812v-94.949h548.15v1601.8l-2794.5 0.003906zm2794.5-27.066h-548.15v-73.723h382.33c7.4805 0 13.535-6.0547 13.535-13.535s-6.0547-13.535-13.535-13.535h-382.33v-73.695h548.15zm-575.21-100.79h-542.54c-7.4805 0-13.535 6.0547-13.535 13.535 0 7.4805 6.0547 13.535 13.535 13.535h542.54v73.723l-2219.3-0.003907v-174.48h2219.3zm-363.96 2593.9 48.242 48.242h-1012.6l48.242-48.242c108.01-108.01 168.86-250.56 172.27-402.71h571.57c3.4062 152.18 64.258 294.73 172.26 402.71zm952.73-429.78h-2821.6c-70.391 0-127.67-57.281-127.67-127.67v-136h3076.9v136c0.003906 70.391-57.277 127.67-127.67 127.67zm488.25-331.34c0 22.391-18.211 40.602-40.602 40.602h-252.46c-21.852 0-39.598-17.383-40.441-39.031v-81.98h333.51zm0-107.48h-333.51v-118.95l333.51-0.003907zm0-294.07h-333.51v-118.98h333.51z"/>
  <path d="m976.07 1923.3h-450.16c-39.332 0-71.316 31.984-71.316 71.316v450.16c0 39.332 31.984 71.316 71.316 71.316h450.16c39.332 0 71.316-31.984 71.316-71.316l-0.003906-450.16c0-39.332-31.984-71.316-71.316-71.316zm44.25 521.48c0 24.398-19.852 44.25-44.25 44.25h-450.16c-24.398 0-44.25-19.852-44.25-44.25v-450.16c0-24.398 19.852-44.25 44.25-44.25h450.16c24.398 0 44.25 19.852 44.25 44.25z"/>
  <path d="m1803.9 1923.3h-450.16c-39.332 0-71.316 31.984-71.316 71.316v450.16c0 39.332 31.984 71.316 71.316 71.316h450.16c39.332 0 71.316-31.984 71.316-71.316v-450.16c0-39.332-31.984-71.316-71.316-71.316zm44.25 521.48c0 24.398-19.852 44.25-44.25 44.25h-450.16c-24.398 0-44.25-19.852-44.25-44.25l0.003906-450.16c0-24.398 19.852-44.25 44.25-44.25h450.16c24.398 0 44.25 19.852 44.25 44.25z"/>
  <path d="m2627.6 1923.3h-450.16c-39.332 0-71.316 31.984-71.316 71.316v450.16c0 39.332 31.984 71.316 71.316 71.316h450.16c39.332 0 71.316-31.984 71.316-71.316v-450.16c0-39.332-31.984-71.316-71.32-71.316zm44.25 521.48c0 24.398-19.852 44.25-44.25 44.25h-450.16c-24.398 0-44.25-19.852-44.25-44.25v-450.16c0-24.398 19.852-44.25 44.25-44.25h450.16c24.398 0 44.25 19.852 44.25 44.25z"/>
  <path d="m2747.1 1689c-9.5703 12.766-24.188 20.09-40.125 20.09h-8.6953v-446.46c0-42.586-34.629-77.211-77.184-77.211h-2053.5v-8.6719c0-17.051 8.5117-32.75 22.785-42.027 6.2656-4.0703 8.0352-12.449 3.9648-18.715-4.0977-6.293-12.477-8.0078-18.715-3.9648-21.992 14.273-35.102 38.461-35.102 64.707v8.6719h-8.6953c-42.559 0-77.184 34.629-77.184 77.211v482.22c0 42.559 34.629 77.184 77.184 77.184h2089.2c42.559 0 77.184-34.629 77.184-77.184v-8.6953h8.6953c24.188 0 47.289-11.551 61.801-30.926 4.4688-5.9727 3.25-14.461-2.7227-18.953-5.9492-4.4688-14.434-3.2539-18.957 2.7188zm-75.887 55.855c0 27.621-22.496 50.117-50.117 50.117h-2089.2c-27.621 0-50.117-22.496-50.117-50.117v-482.22c0-27.648 22.496-50.145 50.117-50.145h2089.2c27.621 0 50.117 22.496 50.117 50.145z"/>
  <path d="m2770.7 1362.9c-7.4805 0-13.535 6.0547-13.535 13.535v161.69c0 7.4805 6.0547 13.535 13.535 13.535s13.535-6.0547 13.535-13.535v-161.69c0-7.4805-6.0547-13.535-13.535-13.535z"/>
  <path d="m2707 1099.5h-23.656c-7.4805 0-13.535 6.0547-13.535 13.535 0 7.4805 6.0547 13.535 13.535 13.535h23.656c27.621 0 50.117 22.496 50.117 50.145v38.012c0 7.4805 6.0547 13.535 13.535 13.535s13.535-6.0547 13.535-13.535v-38.012c0-42.586-34.629-77.215-77.188-77.215z"/>
  <path d="m743.04 1126.6h161.69c7.4805 0 13.535-6.0547 13.535-13.535 0-7.4805-6.0547-13.535-13.535-13.535h-161.69c-7.4805 0-13.535 6.0547-13.535 13.535 0 7.4844 6.0547 13.535 13.535 13.535z"/>
  <path d="m1389.8 1126.6h161.69c7.4805 0 13.535-6.0547 13.535-13.535 0-7.4805-6.0547-13.535-13.535-13.535h-161.69c-7.4805 0-13.535 6.0547-13.535 13.535 0 7.4844 6.0547 13.535 13.535 13.535z"/>
  <path d="m1066.4 1126.6h161.69c7.4805 0 13.535-6.0547 13.535-13.535 0-7.4805-6.0547-13.535-13.535-13.535h-161.69c-7.4805 0-13.535 6.0547-13.535 13.535 0 7.4844 6.0508 13.535 13.535 13.535z"/>
  <path d="m2036.6 1126.6h161.69c7.4805 0 13.535-6.0547 13.535-13.535 0-7.4805-6.0547-13.535-13.535-13.535h-161.69c-7.4805 0-13.535 6.0547-13.535 13.535 0 7.4844 6.0547 13.535 13.535 13.535z"/>
  <path d="m1713.2 1126.6h161.69c7.4805 0 13.535-6.0547 13.535-13.535 0-7.4805-6.0547-13.535-13.535-13.535h-161.69c-7.4805 0-13.535 6.0547-13.535 13.535 0.003906 7.4844 6.0547 13.535 13.535 13.535z"/>
  <path d="m2226.5 1436.5c-7.4805 0-13.535 6.0547-13.535 13.535 0 7.4805 6.0547 13.535 13.535 13.535h139.73c7.4805 0 13.535-6.0547 13.535-13.535 0-7.4805-6.0547-13.535-13.535-13.535z"/>
  <path d="m757.13 1349h614.15c7.4805 0 13.535-6.0547 13.535-13.535s-6.0547-13.535-13.535-13.535l-614.15 0.003907c-7.4805 0-13.535 6.0547-13.535 13.535s6.0547 13.531 13.535 13.531z"/>
  <path d="m757.13 1463.6h1371.4c7.4805 0 13.535-6.0547 13.535-13.535 0-7.4805-6.0547-13.535-13.535-13.535h-1371.4c-7.4805 0-13.535 6.0547-13.535 13.535 0 7.4805 6.0547 13.535 13.535 13.535z"/>
  <path d="m2585.2 1551h-271.05c-7.4805 0-13.535 6.0547-13.535 13.535 0 7.4805 6.0547 13.535 13.535 13.535h271.05c7.4805 0 13.535-6.0547 13.535-13.535-0.003907-7.4805-6.0547-13.535-13.535-13.535z"/>
  <path d="m2585.2 1658.3h-1119c-7.4805 0-13.535 6.0547-13.535 13.535 0 7.4805 6.0547 13.535 13.535 13.535h1119c7.4805 0 13.535-6.0547 13.535-13.535-0.003907-7.4805-6.0547-13.535-13.535-13.535z"/>
  <path d="m1899.9 1551c-7.4805 0-13.535 6.0547-13.535 13.535 0 7.4805 6.0547 13.535 13.535 13.535h272.42c7.4805 0 13.535-6.0547 13.535-13.535 0-7.4805-6.0547-13.535-13.535-13.535z"/>
  <path d="m757.13 1578.1h997.17c7.4805 0 13.535-6.0547 13.535-13.535 0-7.4805-6.0547-13.535-13.535-13.535h-997.17c-7.4805 0-13.535 6.0547-13.535 13.535 0 7.4805 6.0547 13.535 13.535 13.535z"/>
  <path d="m1353.5 1658.3h-596.41c-7.4805 0-13.535 6.0547-13.535 13.535 0 7.4805 6.0547 13.535 13.535 13.535h596.41c7.4805 0 13.535-6.0547 13.535-13.535-0.003906-7.4805-6.0547-13.535-13.535-13.535z"/>
  <path d="m1499.5 1349h1026.8c7.4805 0 13.535-6.0547 13.535-13.535s-6.0547-13.535-13.535-13.535l-1026.8 0.003907c-7.4805 0-13.535 6.0547-13.535 13.535 0.003906 7.4805 6.0547 13.531 13.535 13.531z"/>
 </g>
</svg>
