<?xml version="1.0" encoding="UTF-8"?>
<svg width="128pt" height="128pt" version="1.1" viewBox="0 0 128 128" xmlns="http://www.w3.org/2000/svg">
 <g>
  <path d="m47.5 47.5h33v33h-33z"/>
  <path d="m84 37.5h-40c-3.6016 0-6.5 2.8984-6.5 6.5v40c0 3.6016 2.8984 6.5 6.5 6.5h40c3.6016 0 6.5-2.8984 6.5-6.5v-40c0-3.6016-2.8984-6.5-6.5-6.5zm-0.5 44.5c0 0.82422-0.67578 1.5-1.5 1.5h-36c-0.82422 0-1.5-0.67578-1.5-1.5v-36c0-0.82422 0.67578-1.5 1.5-1.5h36c0.82422 0 1.5 0.67578 1.5 1.5z"/>
  <path d="m44.5 33.5c-0.023438 0.80078 0.60156 1.4766 1.3984 1.5h0.050781 7.5c0.85156 0 1.5234-0.64844 1.5508-1.5v-12.5c-0.023438-0.85156-0.72656-1.5-1.5508-1.5h-0.19922v-6c-0.023438-0.85156-0.72656-1.5-1.5508-1.5h-0.44922v-4c0-0.82422-0.67578-1.5-1.5-1.5s-1.5 0.67578-1.5 1.5v4h-0.55078c-0.80078 0-1.4492 0.64844-1.4492 1.4492v0.050781 6h-0.30078c-0.80078 0-1.4492 0.64844-1.4492 1.4492v0.050781z"/>
  <path d="m74.551 35h7.5c0.80078 0 1.4492-0.64844 1.4492-1.4492v-0.050781-12.5c0.023438-0.80078-0.60156-1.4766-1.3984-1.5h-0.050781-0.30078v-6c0.023438-0.80078-0.60156-1.4766-1.3984-1.5h-0.050781-0.55078v-4c0-0.82422-0.67578-1.5-1.5-1.5s-1.5 0.67578-1.5 1.5v4h-0.44922c-0.85156 0-1.5234 0.64844-1.5508 1.5v6h-0.19922c-0.85156 0-1.5234 0.64844-1.5508 1.5v12.5c0.023438 0.85156 0.72656 1.5 1.5508 1.5z"/>
  <path d="m60.25 35h7.5c0.82422 0 1.5-0.67578 1.5-1.5v-12.5c0-0.82422-0.67578-1.5-1.5-1.5h-0.25v-6c0-0.82422-0.67578-1.5-1.5-1.5h-0.5v-4c0-0.82422-0.67578-1.5-1.5-1.5s-1.5 0.67578-1.5 1.5v4h-0.5c-0.82422 0-1.5 0.67578-1.5 1.5v6h-0.25c-0.82422 0-1.5 0.67578-1.5 1.5v12.5c0 0.82422 0.67578 1.5 1.5 1.5z"/>
  <path d="m83.5 94.5c0.023438-0.80078-0.60156-1.4766-1.3984-1.5h-0.050781-7.5c-0.85156 0-1.5234 0.64844-1.5508 1.5v12.5c0.023438 0.85156 0.72656 1.5 1.5508 1.5h0.19922v6c0.023438 0.85156 0.72656 1.5 1.5508 1.5h0.44922v4c0 0.82422 0.67578 1.5 1.5 1.5s1.5-0.67578 1.5-1.5v-4h0.55078c0.80078 0 1.4492-0.64844 1.4492-1.4492v-0.050781-6h0.30078c0.80078 0 1.4492-0.64844 1.4492-1.4492v-0.050781z"/>
  <path d="m53.449 93h-7.5c-0.80078 0-1.4492 0.64844-1.4492 1.4492v0.050781 12.5c-0.023438 0.80078 0.60156 1.4766 1.3984 1.5h0.050781 0.30078v6c-0.023438 0.80078 0.60156 1.4766 1.3984 1.5h0.050781 0.55078v4c0 0.82422 0.67578 1.5 1.5 1.5s1.5-0.67578 1.5-1.5v-4h0.44922c0.85156 0 1.5234-0.64844 1.5508-1.5v-6h0.19922c0.85156 0 1.5234-0.64844 1.5508-1.5v-12.5c-0.023438-0.85156-0.72656-1.5-1.5508-1.5z"/>
  <path d="m67.75 93h-7.5c-0.82422 0-1.5 0.67578-1.5 1.5v12.5c0 0.82422 0.67578 1.5 1.5 1.5h0.25v6c0 0.82422 0.67578 1.5 1.5 1.5h0.5v4c0 0.82422 0.67578 1.5 1.5 1.5s1.5-0.67578 1.5-1.5v-4h0.5c0.82422 0 1.5-0.67578 1.5-1.5v-6h0.25c0.82422 0 1.5-0.67578 1.5-1.5v-12.5c0-0.82422-0.67578-1.5-1.5-1.5z"/>
  <path d="m94.5 55h12.5c0.85156-0.023438 1.5-0.72656 1.5-1.5508v-0.19922h6c0.85156-0.023438 1.5-0.72656 1.5-1.5508v-0.44922h4c0.82422 0 1.5-0.67578 1.5-1.5s-0.67578-1.5-1.5-1.5h-4v-0.55078c0-0.80078-0.64844-1.4492-1.4492-1.4492h-0.050781-6v-0.30078c0-0.80078-0.64844-1.4492-1.4492-1.4492h-0.050781-12.5c-0.80078-0.023438-1.4766 0.60156-1.5 1.3984v0.050781 7.5c0 0.82422 0.64844 1.5273 1.5 1.5508z"/>
  <path d="m120 76.75h-4v-0.44922c0-0.85156-0.64844-1.5234-1.5-1.5508h-6v-0.19922c0-0.85156-0.64844-1.5234-1.5-1.5508h-12.5c-0.85156 0.023438-1.5 0.72656-1.5 1.5508v7.5c0 0.80078 0.64844 1.4492 1.4492 1.4492h0.050781 12.5c0.80078 0.023438 1.4766-0.60156 1.5-1.3984v-0.050781-0.30078h6c0.80078 0.023438 1.4766-0.60156 1.5-1.3984v-0.050781-0.55078h4c0.82422 0 1.5-0.67578 1.5-1.5s-0.67578-1.5-1.5-1.5z"/>
  <path d="m120 62.5h-4v-0.5c0-0.82422-0.67578-1.5-1.5-1.5h-6v-0.25c0-0.82422-0.67578-1.5-1.5-1.5h-12.5c-0.82422 0-1.5 0.67578-1.5 1.5v7.5c0 0.82422 0.67578 1.5 1.5 1.5h12.5c0.82422 0 1.5-0.67578 1.5-1.5v-0.25h6c0.82422 0 1.5-0.67578 1.5-1.5v-0.5h4c0.82422 0 1.5-0.67578 1.5-1.5s-0.67578-1.5-1.5-1.5z"/>
  <path d="m33.5 73h-12.5c-0.85156 0.023438-1.5 0.72656-1.5 1.5508v0.19922h-6c-0.85156 0.023438-1.5 0.72656-1.5 1.5508v0.44922h-4c-0.82422 0-1.5 0.67578-1.5 1.5s0.67578 1.5 1.5 1.5h4v0.55078c0 0.80078 0.64844 1.4492 1.4492 1.4492h0.050781 6v0.30078c0 0.80078 0.64844 1.4492 1.4492 1.4492h0.050781 12.5c0.80078 0.023438 1.4766-0.60156 1.5-1.3984v-0.050781-7.5c0-0.82422-0.64844-1.5273-1.5-1.5508z"/>
  <path d="m33.551 44.5h-0.050781-12.5c-0.80078-0.023438-1.4766 0.60156-1.5 1.3984v0.050781 0.30078h-6c-0.80078-0.023438-1.4766 0.60156-1.5 1.3984v0.050781 0.55078h-4c-0.82422 0-1.5 0.67578-1.5 1.5s0.67578 1.5 1.5 1.5h4v0.44922c0 0.85156 0.64844 1.5234 1.5 1.5508h6v0.19922c0 0.85156 0.64844 1.5234 1.5 1.5508h12.5c0.85156-0.023438 1.5-0.72656 1.5-1.5508v-7.5c0-0.80078-0.64844-1.4492-1.4492-1.4492z"/>
  <path d="m33.5 58.75h-12.5c-0.82422 0-1.5 0.67578-1.5 1.5v0.25h-6c-0.82422 0-1.5 0.67578-1.5 1.5v0.5h-4c-0.82422 0-1.5 0.67578-1.5 1.5s0.67578 1.5 1.5 1.5h4v0.5c0 0.82422 0.67578 1.5 1.5 1.5h6v0.25c0 0.82422 0.67578 1.5 1.5 1.5h12.5c0.82422 0 1.5-0.67578 1.5-1.5v-7.5c0-0.82422-0.67578-1.5-1.5-1.5z"/>
 </g>
</svg>
